<?xml version="1.0" standalone="no"?>
<!DOCTYPE svg PUBLIC "-//W3C//DTD SVG 20010904//EN"
 "http://www.w3.org/TR/2001/REC-SVG-20010904/DTD/svg10.dtd">
<svg version="1.0" xmlns="http://www.w3.org/2000/svg"
 width="400.000000pt" height="400.000000pt" viewBox="0 0 400.000000 400.000000"
 preserveAspectRatio="xMidYMid meet">
<metadata>
Created by potrace 1.11, written by Peter Selinger 2001-2013
</metadata>
<g transform="translate(0.000000,400.000000) scale(0.100000,-0.100000)"
fill="#000000" stroke="none">
<path d="M0 2000 l0 -2000 2000 0 2000 0 0 2000 0 2000 -2000 0 -2000 0 0
-2000z m3288 -17 l-3 -1368 -1045 -3 -1045 -2 -262 262 -263 263 0 1107 0
1108 1310 0 1310 0 -2 -1367z"/>
<path d="M2490 2484 c0 -119 3 -214 8 -212 4 3 22 11 40 18 28 13 32 19 32 52
0 37 1 38 35 38 30 0 35 -3 35 -22 0 -23 1 -23 140 -23 139 0 140 0 140 23 0
19 5 22 35 22 33 0 35 -2 35 -34 0 -30 5 -37 40 -55 l40 -21 0 215 0 215 -290
0 -290 0 0 -216z"/>
<path d="M2673 2273 c-13 -2 -23 -10 -23 -17 0 -25 61 -135 99 -177 l37 -43
46 65 c87 123 98 163 47 173 -34 7 -170 6 -206 -1z"/>
<path d="M2533 2219 c-36 -23 -73 -91 -73 -135 0 -68 72 -134 148 -134 44 0
105 20 116 38 3 6 -18 44 -47 84 -29 41 -61 95 -71 121 -10 26 -23 47 -29 47
-7 0 -26 -10 -44 -21z"/>
<path d="M2962 2202 c-13 -44 -78 -148 -110 -176 -29 -26 -28 -31 14 -56 102
-64 234 3 234 118 0 52 -19 91 -60 126 -44 37 -64 34 -78 -12z"/>
<path d="M2736 1922 c-50 -34 -164 -44 -215 -18 l-31 17 0 -41 0 -40 289 0
c309 0 307 0 294 50 -4 15 -10 19 -22 14 -9 -4 -47 -9 -86 -11 -63 -4 -76 -2
-129 26 -32 17 -59 31 -60 30 0 0 -19 -12 -40 -27z"/>
<path d="M912 1768 c-24 -12 -38 -48 -28 -74 3 -8 24 -23 46 -31 26 -10 40
-22 40 -34 0 -23 -36 -35 -56 -18 -12 10 -17 10 -27 0 -9 -10 -8 -15 7 -27 48
-34 120 0 114 54 -2 21 -13 32 -45 47 -56 25 -61 58 -8 54 47 -5 68 16 31 31
-33 12 -44 12 -74 -2z"/>
<path d="M1754 1771 c-32 -14 -64 -60 -64 -93 0 -64 45 -108 111 -108 22 0 41
10 66 35 32 32 35 40 30 77 -3 24 -15 51 -29 65 -27 26 -81 38 -114 24z m90
-53 c24 -34 20 -73 -10 -97 -33 -26 -58 -27 -84 -1 -24 24 -26 77 -3 102 23
26 78 24 97 -4z"/>
<path d="M2336 1759 c-41 -32 -33 -69 22 -94 25 -12 42 -26 42 -37 0 -22 -37
-33 -56 -17 -12 10 -17 10 -27 0 -9 -10 -8 -15 7 -27 48 -34 120 0 114 54 -2
20 -14 32 -43 48 -22 11 -42 28 -43 38 -3 15 2 17 32 15 48 -5 69 16 32 31
-39 14 -50 13 -80 -11z"/>
<path d="M1030 1755 c0 -10 10 -15 30 -15 l30 0 0 -80 c0 -64 3 -80 15 -80 12
0 15 16 15 80 l0 80 30 0 c20 0 30 5 30 15 0 12 -15 15 -75 15 -60 0 -75 -3
-75 -15z"/>
<path d="M1237 1758 c-3 -7 -21 -50 -41 -95 -33 -79 -34 -83 -15 -83 12 0 23
8 26 20 4 16 14 20 50 20 36 0 46 -4 50 -20 3 -13 14 -20 28 -20 23 0 23 1
-18 95 -29 68 -45 95 -58 95 -9 0 -19 -6 -22 -12z m41 -78 c11 -29 10 -30 -20
-30 -25 0 -29 3 -23 18 4 9 10 25 12 34 7 23 19 15 31 -22z"/>
<path d="M1380 1675 c0 -88 1 -95 20 -95 17 0 20 7 20 40 l0 40 40 0 c29 0 40
4 40 15 0 11 -11 15 -40 15 -36 0 -40 3 -40 25 0 23 4 25 45 25 33 0 45 4 45
15 0 12 -14 15 -65 15 l-65 0 0 -95z"/>
<path d="M1540 1675 c0 -88 1 -95 20 -95 17 0 20 7 20 40 l0 40 40 0 c29 0 40
4 40 15 0 11 -11 15 -40 15 -36 0 -40 3 -40 25 0 23 4 25 45 25 33 0 45 4 45
15 0 12 -14 15 -65 15 l-65 0 0 -95z"/>
<path d="M1930 1675 c0 -88 1 -95 20 -95 17 0 20 7 20 40 0 51 13 51 42 0 13
-22 31 -40 41 -40 22 0 21 5 -3 46 l-21 33 21 11 c14 8 20 21 20 45 0 43 -20
55 -89 55 l-51 0 0 -95z m103 53 c8 -24 -5 -38 -34 -38 -24 0 -29 4 -29 25 0
21 5 25 29 25 16 0 31 -6 34 -12z"/>
<path d="M2110 1675 l0 -95 60 0 c51 0 65 4 85 25 25 24 34 81 19 120 -10 25
-59 45 -114 45 l-50 0 0 -95z m113 53 c9 -7 20 -27 23 -44 8 -43 -22 -74 -71
-74 l-35 0 0 65 0 65 33 0 c18 0 41 -6 50 -12z"/>
<path d="M2480 1675 c0 -78 3 -95 15 -95 11 0 15 11 15 40 l0 40 45 0 45 0 0
-40 c0 -33 3 -40 20 -40 19 0 20 7 20 95 0 88 -1 95 -20 95 -17 0 -20 -7 -20
-41 l0 -40 -42 3 c-42 3 -43 4 -46 41 -2 24 -8 37 -18 37 -11 0 -14 -19 -14
-95z"/>
<path d="M2680 1675 c0 -88 1 -95 20 -95 19 0 20 7 20 95 0 88 -1 95 -20 95
-19 0 -20 -7 -20 -95z"/>
<path d="M2760 1675 c0 -88 1 -95 20 -95 17 0 20 7 20 40 0 22 4 40 9 40 6 0
20 -18 32 -40 14 -24 30 -40 41 -40 23 0 23 8 -2 45 -19 29 -19 29 0 48 11 10
20 29 20 42 0 39 -25 55 -86 55 l-54 0 0 -95z m95 40 c0 -14 -8 -21 -27 -23
-24 -3 -28 0 -28 23 0 23 4 26 28 23 19 -2 27 -9 27 -23z"/>
<path d="M2940 1675 l0 -95 65 0 c51 0 65 3 65 15 0 11 -12 15 -50 15 -47 0
-50 2 -50 25 0 23 4 25 45 25 33 0 45 4 45 15 0 11 -12 15 -45 15 -41 0 -45 2
-45 25 0 23 3 25 50 25 38 0 50 4 50 15 0 12 -14 15 -65 15 l-65 0 0 -95z"/>
<path d="M1906 1461 c-10 -11 -16 -31 -14 -48 2 -22 12 -32 46 -47 33 -15 42
-25 40 -40 -3 -24 -42 -34 -63 -16 -10 8 -15 8 -21 -1 -11 -19 27 -41 60 -35
43 9 57 25 54 60 -2 26 -11 35 -46 51 -32 15 -42 25 -40 40 2 15 11 20 38 21
52 2 54 3 40 19 -18 21 -73 19 -94 -4z"/>
<path d="M2490 1375 l0 -105 290 0 290 0 0 105 0 105 -290 0 -290 0 0 -105z"/>
<path d="M890 1391 c0 -74 2 -81 26 -100 30 -24 43 -26 77 -10 34 16 47 49 47
124 0 51 -3 65 -15 65 -12 0 -15 -14 -15 -66 0 -76 -12 -104 -44 -104 -40 0
-56 29 -56 103 0 38 -4 67 -10 67 -6 0 -10 -33 -10 -79z"/>
<path d="M1080 1375 c0 -77 3 -95 15 -95 11 0 15 18 17 77 l3 77 53 -77 c72
-104 82 -102 82 18 0 114 -18 129 -22 18 l-3 -77 -50 77 c-38 58 -56 77 -72
77 -22 0 -23 -3 -23 -95z"/>
<path d="M1310 1375 c0 -57 4 -95 10 -95 6 0 10 38 10 95 0 57 -4 95 -10 95
-6 0 -10 -38 -10 -95z"/>
<path d="M1360 1466 c0 -23 72 -182 83 -184 11 -2 25 22 47 80 18 46 35 89 37
96 3 6 -2 12 -10 12 -10 0 -25 -27 -42 -75 -15 -41 -29 -75 -30 -75 -1 0 -15
34 -30 75 -16 45 -33 75 -41 75 -8 0 -14 -2 -14 -4z"/>
<path d="M1560 1375 l0 -95 65 0 c78 0 88 18 13 22 -51 3 -53 4 -53 33 0 29 2
30 48 33 26 2 47 7 47 12 0 5 -21 10 -47 12 -44 3 -48 5 -48 28 0 23 4 25 48
28 68 4 58 22 -13 22 l-60 0 0 -95z"/>
<path d="M1730 1375 c0 -57 4 -95 10 -95 6 0 10 18 10 40 0 32 4 40 18 40 11
0 27 -16 41 -40 12 -22 29 -40 37 -40 18 0 18 2 -7 45 l-22 36 22 20 c23 22
26 41 11 70 -9 15 -22 19 -65 19 l-55 0 0 -95z m95 45 c0 -22 -5 -25 -37 -28
-36 -3 -38 -2 -38 28 0 30 2 31 38 28 32 -3 37 -6 37 -28z"/>
<path d="M2050 1375 c0 -78 3 -95 15 -95 12 0 15 17 15 95 0 78 -3 95 -15 95
-12 0 -15 -17 -15 -95z"/>
<path d="M2110 1460 c0 -5 14 -10 30 -10 l30 0 0 -85 c0 -69 3 -85 15 -85 12
0 15 16 15 85 l0 85 30 0 c17 0 30 5 30 10 0 6 -32 10 -75 10 -43 0 -75 -4
-75 -10z"/>
<path d="M2270 1464 c0 -3 14 -25 30 -49 23 -33 30 -55 30 -89 0 -34 4 -46 15
-46 11 0 15 11 15 41 0 28 9 53 28 82 44 64 45 67 28 67 -9 0 -28 -18 -42 -40
l-27 -41 -24 41 c-13 22 -31 40 -39 40 -8 0 -14 -3 -14 -6z"/>
</g>
</svg>
